<svg xmlns="http://www.w3.org/2000/svg" width="132" height="42" viewBox="0 0 132 42" fill="none"><g clip-path="url(#clip0_1_865)"><path d="M0 37.6771H53.9855V38.3116H0V37.6771ZM78.1338 38.3116H131.96V37.6771H78.1338V38.3116ZM131.96 3.52974H82.3906V4.16431H131.96V3.52974ZM67.9096 41.8414H72.3653V40.8895H67.9096V41.8414ZM73.0018 36.7649C73.0018 38.3116 71.7288 39.5411 70.1374 39.5411C68.5063 39.5411 67.2731 38.3513 67.2731 36.8045C67.2731 35.2578 68.5461 34.0283 70.1374 34.0283C71.7685 33.9887 73.0018 35.1785 73.0018 36.7649ZM71.8083 36.7649C71.8083 35.7734 71.0922 35.0198 70.0976 35.0198C69.1429 35.0198 68.387 35.7734 68.387 36.7649C68.387 37.7564 69.1031 38.5099 70.0976 38.5099C71.0922 38.5099 71.8083 37.7564 71.8083 36.7649ZM63.2152 40.7309C61.7034 40.7309 60.5895 39.5014 60.5895 37.9547V37.915C60.5895 36.4079 61.7034 35.1785 63.2152 35.1785C64.1302 35.1785 64.8065 35.5751 65.443 36.1303L66.3581 35.1388C65.6022 34.4249 64.6872 33.949 63.255 33.949C60.8282 33.949 59.1573 35.7734 59.1573 37.9547V37.9943C59.1573 40.2153 60.868 42 63.2152 42C64.6872 42 65.6022 41.4448 66.4376 40.6119L65.5226 39.7394C64.8065 40.3343 64.17 40.7309 63.2152 40.7309ZM62.4195 25.779H53.8662V21.8527H61.3852V19.5524H53.8662V15.745H62.34V13.4448H51.2405V28H62.4593V25.779H62.4195ZM42.8065 22.5666L46.8644 28.0793H43.7613L40.0615 23.0028H36.7595V28.0793H34.1338V13.5241H40.8174C42.6872 13.5241 44.1591 14.0793 45.1537 14.9915C45.9494 15.7847 46.387 16.8555 46.387 18.1246V18.1643C46.387 20.5439 44.915 21.9717 42.8065 22.5666ZM43.7215 18.2436C43.7215 16.6572 42.6076 15.8244 40.6184 15.8244H36.7993V20.7026H40.6582C42.528 20.7026 43.7215 19.7507 43.7215 18.2833V18.2436ZM5.92767 13.5241C9.42857 13.5241 11.6166 15.4674 11.6166 18.4023V18.4419C11.6166 21.6941 8.95118 23.3994 5.64919 23.3994H2.66546V28.0793H0.039783V13.5241H5.92767ZM5.72875 15.8244H2.66546V21.0595H5.72875C7.7179 21.0595 8.95118 19.9887 8.95118 18.4419V18.4023C8.95118 16.7365 7.67812 15.8244 5.72875 15.8244ZM15.9928 13.5241V21.8924C15.9928 26.136 18.698 28.3173 22.8354 28.3173C27.0524 28.3173 29.7577 26.136 29.7577 21.7734V13.5241H26.9331V21.8924C26.9331 24.5892 25.3816 25.9377 22.8752 25.9377C20.3291 25.9377 18.8174 24.5099 18.8174 21.7734V13.5241H15.9928ZM49.689 3.52974H0V4.16431H49.689V3.52974ZM90.4268 13.3654C94.8427 13.3654 97.906 16.7762 97.906 20.8612V20.9009C97.906 24.9858 94.8029 28.4363 90.387 28.4363C85.9711 28.4363 82.9078 25.0255 82.9078 20.9405V20.9009C82.9476 16.8159 86.0506 13.3654 90.4268 13.3654ZM90.387 15.745C87.5624 15.745 85.5732 18.0453 85.5732 20.9009V20.9405C85.5732 23.7564 87.5624 26.136 90.4268 26.136C93.2514 26.136 95.2405 23.8357 95.2405 20.9802V20.9405C95.2803 18.085 93.2514 15.745 90.387 15.745ZM132 20.8612V20.9009C132 24.9858 128.738 28.1983 124.043 28.1983H118.474V13.6431H124.043C128.738 13.6431 132 16.7762 132 20.8612ZM129.215 20.9009C129.215 18.0453 127.146 15.9433 124.004 15.9433H121.06V25.8584H124.004C127.146 25.8584 129.215 23.796 129.215 20.9405V20.9009ZM108.21 13.3654C112.626 13.3654 115.689 16.7762 115.689 20.8612V20.9009C115.689 24.9858 112.586 28.4363 108.17 28.4363C103.754 28.4363 100.691 25.0255 100.691 20.9405V20.9009C100.691 16.8159 103.794 13.3654 108.21 13.3654ZM108.17 15.745C105.345 15.745 103.356 18.0453 103.356 20.9009V20.9405C103.356 23.7564 105.345 26.136 108.21 26.136C111.074 26.136 113.024 23.8357 113.024 20.9802V20.9405C113.024 18.085 111.034 15.745 108.17 15.745ZM72.2459 22.2493H79.8047V19.9093H72.2459V15.9433H80.7595V13.6034H69.6203V28.1586H72.2459V22.2493ZM63.6926 4.28329H68.3074V7.77337H69.2224V0H68.3074V3.45042H63.6926V0H62.7776V7.77337H63.6926V4.28329ZM77.2586 6.98017H72.3255V4.28329H76.6618V3.49009H72.3255V0.793201H77.179V0H71.4105V7.77337H77.2188V6.98017H77.2586ZM57.5262 7.77337H58.4412V0.793201H61.1067V0H54.8608V0.793201H57.5262V7.77337Z" fill="#2B1D1A"></path></g><defs><clipPath id="clip0_1_865"><rect width="132" height="42" fill="white"></rect></clipPath></defs></svg>